<svg width="134" height="40" viewBox="0 0 134 40" fill="none" xmlns="http://www.w3.org/2000/svg">
    <path d="M48.22 28H51.34L54.2 17.28L57.06 28H60.18L64.18 13.1H61.26L58.5 24.3L55.62 13.1H52.8L49.9 24.3L47.14 13.1H44.22L48.22 28ZM65.6106 15.9H68.2306V13.1H65.6106V15.9ZM65.6106 28H68.2306V17.12H65.6106V28ZM70.6497 28H73.2697V21.62C73.2697 20.9133 73.4697 20.3467 73.8697 19.92C74.283 19.4933 74.8164 19.28 75.4697 19.28C76.123 19.28 76.6497 19.4933 77.0497 19.92C77.463 20.3333 77.6697 20.9 77.6697 21.62V28H80.2897V21C80.2897 20.1867 80.1164 19.4733 79.7697 18.86C79.423 18.2333 78.9364 17.7467 78.3097 17.4C77.6964 17.0533 76.9897 16.88 76.1897 16.88C75.5097 16.88 74.8964 17.0133 74.3497 17.28C73.8164 17.5467 73.403 17.94 73.1097 18.46V17.12H70.6497V28ZM82.7252 28H85.4452V22.5H88.0052L91.0852 28H94.1652L90.7452 22.02C91.5718 21.6733 92.2252 21.14 92.7052 20.42C93.1985 19.7 93.4452 18.8267 93.4452 17.8C93.4452 16.7867 93.2252 15.9333 92.7852 15.24C92.3452 14.5467 91.7318 14.02 90.9452 13.66C90.1718 13.2867 89.2785 13.1 88.2652 13.1H82.7252V28ZM85.4452 20.1V15.5H88.3052C89.0385 15.5 89.6252 15.7067 90.0652 16.12C90.5052 16.5333 90.7252 17.0933 90.7252 17.8C90.7252 18.4933 90.5052 19.0533 90.0652 19.48C89.6252 19.8933 89.0385 20.1 88.3052 20.1H85.4452ZM100.282 28.24C101.389 28.24 102.356 27.9933 103.182 27.5C104.022 26.9933 104.609 26.3533 104.942 25.58L102.822 24.54C102.582 24.9533 102.249 25.2933 101.822 25.56C101.409 25.8133 100.902 25.94 100.302 25.94C99.5157 25.94 98.8557 25.7 98.3223 25.22C97.789 24.74 97.4823 24.1 97.4023 23.3H105.242C105.296 23.1533 105.329 22.9867 105.342 22.8C105.369 22.6 105.382 22.4 105.382 22.2C105.382 21.2267 105.176 20.34 104.762 19.54C104.349 18.74 103.749 18.1 102.962 17.62C102.176 17.1267 101.216 16.88 100.082 16.88C99.069 16.88 98.149 17.1267 97.3223 17.62C96.509 18.1133 95.8623 18.7867 95.3823 19.64C94.9157 20.48 94.6823 21.4467 94.6823 22.54C94.6823 23.5933 94.9157 24.5533 95.3823 25.42C95.849 26.2867 96.5023 26.9733 97.3423 27.48C98.1823 27.9867 99.1623 28.24 100.282 28.24ZM100.082 19.04C100.776 19.04 101.349 19.2533 101.802 19.68C102.269 20.0933 102.529 20.6333 102.582 21.3H97.4623C97.609 20.58 97.9157 20.0267 98.3823 19.64C98.8623 19.24 99.429 19.04 100.082 19.04ZM107.368 28H109.988V21.62C109.988 20.9133 110.188 20.3467 110.588 19.92C111.002 19.4933 111.535 19.28 112.188 19.28C112.842 19.28 113.368 19.4933 113.768 19.92C114.182 20.3333 114.388 20.9 114.388 21.62V28H117.008V21C117.008 20.1867 116.835 19.4733 116.488 18.86C116.142 18.2333 115.655 17.7467 115.028 17.4C114.415 17.0533 113.708 16.88 112.908 16.88C112.228 16.88 111.615 17.0133 111.068 17.28C110.535 17.5467 110.122 17.94 109.828 18.46V17.12H107.368V28ZM124.184 28.12C124.384 28.12 124.604 28.1067 124.844 28.08C125.084 28.0533 125.297 28.0267 125.484 28V25.76C125.231 25.8 124.997 25.82 124.784 25.82C124.144 25.82 123.677 25.6733 123.384 25.38C123.091 25.0867 122.944 24.6667 122.944 24.12V19.46H125.444V17.12H122.944V14.64H120.324V15.48C120.324 16.0133 120.177 16.42 119.884 16.7C119.591 16.98 119.177 17.12 118.644 17.12H118.444V19.46H120.324V24.26C120.324 25.4733 120.657 26.42 121.324 27.1C122.004 27.78 122.957 28.12 124.184 28.12Z" fill="#100A55" />
    <path d="M33.3333 15.6134L26.2226 10.0828C25.5986 9.59731 24.8306 9.33374 24.04 9.33374C23.2494 9.33374 22.4813 9.59731 21.8573 10.0828L14.7453 15.6134C14.3179 15.9458 13.9721 16.3715 13.7343 16.8579C13.4965 17.3443 13.373 17.8787 13.3733 18.4201V28.0201C13.3733 28.7273 13.6542 29.4056 14.1543 29.9057C14.6544 30.4058 15.3327 30.6868 16.04 30.6868H32.04C32.7472 30.6868 33.4255 30.4058 33.9256 29.9057C34.4257 29.4056 34.7066 28.7273 34.7066 28.0201V18.4201C34.7066 17.3228 34.2 16.2868 33.3333 15.6134Z" fill="#7065F0" stroke="#7065F0" stroke-width="3" stroke-linecap="round" stroke-linejoin="round" />
    <path d="M29.3334 24C26.3867 25.7773 21.6107 25.7773 18.6667 24" stroke="#F9FAFB" stroke-width="3" stroke-linecap="round" stroke-linejoin="round" />
</svg>